<mxfile host="65bd71144e">
    <diagram id="VYkaQC0O6ov0rh20eUJT" name="第 1 页">
        <mxGraphModel dx="637" dy="559" grid="1" gridSize="10" guides="1" tooltips="1" connect="1" arrows="1" fold="1" page="1" pageScale="1" pageWidth="827" pageHeight="1169" math="0" shadow="0">
            <root>
                <mxCell id="0"/>
                <mxCell id="1" parent="0"/>
                <mxCell id="100" value="" style="rounded=0;whiteSpace=wrap;html=1;labelBackgroundColor=none;fontSize=10;fillColor=#dae8fc;strokeColor=#6c8ebf;" vertex="1" parent="1">
                    <mxGeometry x="185" y="633" width="525" height="277" as="geometry"/>
                </mxCell>
                <mxCell id="6" value="ArrayList内部属性" style="rounded=0;whiteSpace=wrap;html=1;fillColor=#f5f5f5;fontColor=#333333;strokeColor=#666666;" vertex="1" parent="1">
                    <mxGeometry x="284" y="30" width="126" height="30" as="geometry"/>
                </mxCell>
                <mxCell id="18" value="ArrayList" style="swimlane;fontStyle=0;childLayout=stackLayout;horizontal=1;startSize=26;fillColor=none;horizontalStack=0;resizeParent=1;resizeParentMax=0;resizeLast=0;collapsible=1;marginBottom=0;" vertex="1" parent="1">
                    <mxGeometry x="277" y="80" width="140" height="78" as="geometry"/>
                </mxCell>
                <mxCell id="19" value="- elementData: Object[]" style="text;strokeColor=none;fillColor=none;align=left;verticalAlign=top;spacingLeft=4;spacingRight=4;overflow=hidden;rotatable=0;points=[[0,0.5],[1,0.5]];portConstraint=eastwest;" vertex="1" parent="18">
                    <mxGeometry y="26" width="140" height="26" as="geometry"/>
                </mxCell>
                <mxCell id="20" value="- size: int" style="text;strokeColor=none;fillColor=none;align=left;verticalAlign=top;spacingLeft=4;spacingRight=4;overflow=hidden;rotatable=0;points=[[0,0.5],[1,0.5]];portConstraint=eastwest;" vertex="1" parent="18">
                    <mxGeometry y="52" width="140" height="26" as="geometry"/>
                </mxCell>
                <mxCell id="22" value="可以看到ArrayList中只有两个属性(还有modCount等父类的属性)，elementData和size，其中elementData为数据信息，size为当前数组大小" style="rounded=0;whiteSpace=wrap;html=1;fillColor=none;strokeColor=none;fontColor=#A87ED8;align=left;" vertex="1" parent="1">
                    <mxGeometry x="440" y="80" width="160" height="70" as="geometry"/>
                </mxCell>
                <mxCell id="24" value="ArrayList重要的静态属性" style="shape=table;startSize=30;container=1;collapsible=0;childLayout=tableLayout;fontStyle=0;align=center;pointerEvents=1;" vertex="1" parent="1">
                    <mxGeometry x="140" y="180" width="430" height="150" as="geometry"/>
                </mxCell>
                <mxCell id="25" value="" style="shape=partialRectangle;html=1;whiteSpace=wrap;collapsible=0;dropTarget=0;pointerEvents=0;fillColor=none;top=0;left=0;bottom=0;right=0;points=[[0,0.5],[1,0.5]];portConstraint=eastwest;" vertex="1" parent="24">
                    <mxGeometry y="30" width="430" height="30" as="geometry"/>
                </mxCell>
                <mxCell id="26" value="&lt;font style=&quot;font-size: 10px&quot;&gt;DEFAULT_CAPACITY&lt;/font&gt;" style="shape=partialRectangle;html=1;whiteSpace=wrap;connectable=0;fillColor=none;top=0;left=0;bottom=0;right=0;overflow=hidden;pointerEvents=1;" vertex="1" parent="25">
                    <mxGeometry width="220" height="30" as="geometry">
                        <mxRectangle width="220" height="30" as="alternateBounds"/>
                    </mxGeometry>
                </mxCell>
                <mxCell id="27" value="&lt;font style=&quot;font-size: 10px&quot;&gt;默认容量值，初始值为10&lt;/font&gt;" style="shape=partialRectangle;html=1;whiteSpace=wrap;connectable=0;fillColor=none;top=0;left=0;bottom=0;right=0;overflow=hidden;pointerEvents=1;" vertex="1" parent="25">
                    <mxGeometry x="220" width="210" height="30" as="geometry">
                        <mxRectangle width="210" height="30" as="alternateBounds"/>
                    </mxGeometry>
                </mxCell>
                <mxCell id="62" style="shape=partialRectangle;html=1;whiteSpace=wrap;collapsible=0;dropTarget=0;pointerEvents=0;fillColor=none;top=0;left=0;bottom=0;right=0;points=[[0,0.5],[1,0.5]];portConstraint=eastwest;" vertex="1" parent="24">
                    <mxGeometry y="60" width="430" height="30" as="geometry"/>
                </mxCell>
                <mxCell id="63" value="&lt;font style=&quot;font-size: 10px&quot;&gt;EMPTY_ELEMENTDATA&lt;/font&gt;" style="shape=partialRectangle;html=1;whiteSpace=wrap;connectable=0;fillColor=none;top=0;left=0;bottom=0;right=0;overflow=hidden;pointerEvents=1;" vertex="1" parent="62">
                    <mxGeometry width="220" height="30" as="geometry">
                        <mxRectangle width="220" height="30" as="alternateBounds"/>
                    </mxGeometry>
                </mxCell>
                <mxCell id="64" value="&lt;font style=&quot;font-size: 10px&quot;&gt;空数组，享元&lt;/font&gt;" style="shape=partialRectangle;html=1;whiteSpace=wrap;connectable=0;fillColor=none;top=0;left=0;bottom=0;right=0;overflow=hidden;pointerEvents=1;" vertex="1" parent="62">
                    <mxGeometry x="220" width="210" height="30" as="geometry">
                        <mxRectangle width="210" height="30" as="alternateBounds"/>
                    </mxGeometry>
                </mxCell>
                <mxCell id="68" style="shape=partialRectangle;html=1;whiteSpace=wrap;collapsible=0;dropTarget=0;pointerEvents=0;fillColor=none;top=0;left=0;bottom=0;right=0;points=[[0,0.5],[1,0.5]];portConstraint=eastwest;" vertex="1" parent="24">
                    <mxGeometry y="90" width="430" height="30" as="geometry"/>
                </mxCell>
                <mxCell id="69" value="&lt;font style=&quot;font-size: 10px&quot;&gt;DEFAULTCAPACITY_EMPTY_ELEMENTDATA&lt;/font&gt;" style="shape=partialRectangle;html=1;whiteSpace=wrap;connectable=0;fillColor=none;top=0;left=0;bottom=0;right=0;overflow=hidden;pointerEvents=1;" vertex="1" parent="68">
                    <mxGeometry width="220" height="30" as="geometry">
                        <mxRectangle width="220" height="30" as="alternateBounds"/>
                    </mxGeometry>
                </mxCell>
                <mxCell id="70" value="&lt;font style=&quot;font-size: 10px&quot;&gt;代表容量为初始容量的数组，与空数组分开&lt;/font&gt;" style="shape=partialRectangle;html=1;whiteSpace=wrap;connectable=0;fillColor=none;top=0;left=0;bottom=0;right=0;overflow=hidden;pointerEvents=1;" vertex="1" parent="68">
                    <mxGeometry x="220" width="210" height="30" as="geometry">
                        <mxRectangle width="210" height="30" as="alternateBounds"/>
                    </mxGeometry>
                </mxCell>
                <mxCell id="137" style="shape=partialRectangle;html=1;whiteSpace=wrap;collapsible=0;dropTarget=0;pointerEvents=0;fillColor=none;top=0;left=0;bottom=0;right=0;points=[[0,0.5],[1,0.5]];portConstraint=eastwest;" vertex="1" parent="24">
                    <mxGeometry y="120" width="430" height="30" as="geometry"/>
                </mxCell>
                <mxCell id="138" value="&lt;font style=&quot;font-size: 10px&quot;&gt;MAX_ARRAY_SIZE&lt;/font&gt;" style="shape=partialRectangle;html=1;whiteSpace=wrap;connectable=0;fillColor=none;top=0;left=0;bottom=0;right=0;overflow=hidden;pointerEvents=1;" vertex="1" parent="137">
                    <mxGeometry width="220" height="30" as="geometry">
                        <mxRectangle width="220" height="30" as="alternateBounds"/>
                    </mxGeometry>
                </mxCell>
                <mxCell id="139" value="&lt;span style=&quot;font-size: 10px&quot;&gt;数组大小最大值，&lt;/span&gt;&lt;span style=&quot;font-size: 10px&quot;&gt;Integer.MAX_VALUE-8&lt;/span&gt;" style="shape=partialRectangle;html=1;whiteSpace=wrap;connectable=0;fillColor=none;top=0;left=0;bottom=0;right=0;overflow=hidden;pointerEvents=1;" vertex="1" parent="137">
                    <mxGeometry x="220" width="210" height="30" as="geometry">
                        <mxRectangle width="210" height="30" as="alternateBounds"/>
                    </mxGeometry>
                </mxCell>
                <mxCell id="77" value="构造函数" style="rounded=0;whiteSpace=wrap;html=1;fillColor=#f5f5f5;fontColor=#333333;strokeColor=#666666;" vertex="1" parent="1">
                    <mxGeometry x="284" y="373" width="126" height="30" as="geometry"/>
                </mxCell>
                <mxCell id="78" value="ArrayList构造函数" style="shape=table;startSize=30;container=1;collapsible=0;childLayout=tableLayout;fontStyle=0;align=center;pointerEvents=1;" vertex="1" parent="1">
                    <mxGeometry x="140" y="423" width="430" height="120" as="geometry"/>
                </mxCell>
                <mxCell id="79" value="" style="shape=partialRectangle;html=1;whiteSpace=wrap;collapsible=0;dropTarget=0;pointerEvents=0;fillColor=none;top=0;left=0;bottom=0;right=0;points=[[0,0.5],[1,0.5]];portConstraint=eastwest;" vertex="1" parent="78">
                    <mxGeometry y="30" width="430" height="30" as="geometry"/>
                </mxCell>
                <mxCell id="80" value="&lt;font style=&quot;font-size: 10px&quot;&gt;ArrayList()&lt;/font&gt;" style="shape=partialRectangle;html=1;whiteSpace=wrap;connectable=0;fillColor=none;top=0;left=0;bottom=0;right=0;overflow=hidden;pointerEvents=1;" vertex="1" parent="79">
                    <mxGeometry width="220" height="30" as="geometry">
                        <mxRectangle width="220" height="30" as="alternateBounds"/>
                    </mxGeometry>
                </mxCell>
                <mxCell id="81" value="&lt;font style=&quot;font-size: 10px&quot;&gt;elementData初始化为空数组&lt;/font&gt;" style="shape=partialRectangle;html=1;whiteSpace=wrap;connectable=0;fillColor=none;top=0;left=0;bottom=0;right=0;overflow=hidden;pointerEvents=1;" vertex="1" parent="79">
                    <mxGeometry x="220" width="210" height="30" as="geometry">
                        <mxRectangle width="210" height="30" as="alternateBounds"/>
                    </mxGeometry>
                </mxCell>
                <mxCell id="82" style="shape=partialRectangle;html=1;whiteSpace=wrap;collapsible=0;dropTarget=0;pointerEvents=0;fillColor=none;top=0;left=0;bottom=0;right=0;points=[[0,0.5],[1,0.5]];portConstraint=eastwest;" vertex="1" parent="78">
                    <mxGeometry y="60" width="430" height="30" as="geometry"/>
                </mxCell>
                <mxCell id="83" value="&lt;font style=&quot;font-size: 10px&quot;&gt;ArrayList(int initialCapacity)&lt;/font&gt;" style="shape=partialRectangle;html=1;whiteSpace=wrap;connectable=0;fillColor=none;top=0;left=0;bottom=0;right=0;overflow=hidden;pointerEvents=1;" vertex="1" parent="82">
                    <mxGeometry width="220" height="30" as="geometry">
                        <mxRectangle width="220" height="30" as="alternateBounds"/>
                    </mxGeometry>
                </mxCell>
                <mxCell id="84" value="&lt;font style=&quot;font-size: 10px&quot;&gt;根据填入的数组大小分配空间，为0时使用EMPTY_ELEMENTDATA&lt;/font&gt;" style="shape=partialRectangle;html=1;whiteSpace=wrap;connectable=0;fillColor=none;top=0;left=0;bottom=0;right=0;overflow=hidden;pointerEvents=1;" vertex="1" parent="82">
                    <mxGeometry x="220" width="210" height="30" as="geometry">
                        <mxRectangle width="210" height="30" as="alternateBounds"/>
                    </mxGeometry>
                </mxCell>
                <mxCell id="85" style="shape=partialRectangle;html=1;whiteSpace=wrap;collapsible=0;dropTarget=0;pointerEvents=0;fillColor=none;top=0;left=0;bottom=0;right=0;points=[[0,0.5],[1,0.5]];portConstraint=eastwest;" vertex="1" parent="78">
                    <mxGeometry y="90" width="430" height="30" as="geometry"/>
                </mxCell>
                <mxCell id="86" value="&lt;font style=&quot;font-size: 10px&quot;&gt;ArrayList(Collection&amp;lt;? extends E&amp;gt; c)&lt;/font&gt;" style="shape=partialRectangle;html=1;whiteSpace=wrap;connectable=0;fillColor=none;top=0;left=0;bottom=0;right=0;overflow=hidden;pointerEvents=1;" vertex="1" parent="85">
                    <mxGeometry width="220" height="30" as="geometry">
                        <mxRectangle width="220" height="30" as="alternateBounds"/>
                    </mxGeometry>
                </mxCell>
                <mxCell id="87" value="&lt;font style=&quot;font-size: 10px&quot;&gt;将Collection转为数组后copy进来&lt;/font&gt;" style="shape=partialRectangle;html=1;whiteSpace=wrap;connectable=0;fillColor=none;top=0;left=0;bottom=0;right=0;overflow=hidden;pointerEvents=1;" vertex="1" parent="85">
                    <mxGeometry x="220" width="210" height="30" as="geometry">
                        <mxRectangle width="210" height="30" as="alternateBounds"/>
                    </mxGeometry>
                </mxCell>
                <mxCell id="89" style="edgeStyle=none;html=1;exitX=1;exitY=0.5;exitDx=0;exitDy=0;entryX=0;entryY=0.5;entryDx=0;entryDy=0;fontSize=10;" edge="1" parent="1" source="88" target="68">
                    <mxGeometry relative="1" as="geometry"/>
                </mxCell>
                <mxCell id="88" value="实际初始容量也是0" style="rounded=0;whiteSpace=wrap;html=1;fillColor=none;strokeColor=none;fontColor=#A87ED8;align=left;" vertex="1" parent="1">
                    <mxGeometry x="10" y="270" width="110" height="30" as="geometry"/>
                </mxCell>
                <mxCell id="90" value="add方法" style="rounded=0;whiteSpace=wrap;html=1;fillColor=#f5f5f5;fontColor=#333333;strokeColor=#666666;" vertex="1" parent="1">
                    <mxGeometry x="284" y="588" width="126" height="30" as="geometry"/>
                </mxCell>
                <mxCell id="91" value="" style="ellipse;html=1;shape=startState;fillColor=#000000;strokeColor=#ff0000;labelBackgroundColor=none;fontSize=10;" vertex="1" parent="1">
                    <mxGeometry x="85" y="633" width="30" height="30" as="geometry"/>
                </mxCell>
                <mxCell id="92" value="" style="edgeStyle=orthogonalEdgeStyle;html=1;verticalAlign=bottom;endArrow=open;endSize=8;strokeColor=#ff0000;fontSize=10;entryX=0.5;entryY=0;entryDx=0;entryDy=0;" edge="1" source="91" parent="1" target="93">
                    <mxGeometry relative="1" as="geometry">
                        <mxPoint x="100" y="683" as="targetPoint"/>
                    </mxGeometry>
                </mxCell>
                <mxCell id="95" style="edgeStyle=none;html=1;exitX=0.5;exitY=1;exitDx=0;exitDy=0;entryX=0.5;entryY=0;entryDx=0;entryDy=0;fontSize=10;" edge="1" parent="1" source="93" target="94">
                    <mxGeometry relative="1" as="geometry"/>
                </mxCell>
                <mxCell id="102" style="edgeStyle=orthogonalEdgeStyle;html=1;exitX=1;exitY=0.5;exitDx=0;exitDy=0;fontSize=10;rounded=0;dashed=1;" edge="1" parent="1" source="93" target="101">
                    <mxGeometry relative="1" as="geometry"/>
                </mxCell>
                <mxCell id="93" value="调用ensureCapacityInternal进行扩容" style="rounded=1;whiteSpace=wrap;html=1;labelBackgroundColor=none;fontSize=10;" vertex="1" parent="1">
                    <mxGeometry x="35" y="683" width="130" height="50" as="geometry"/>
                </mxCell>
                <mxCell id="97" value="" style="edgeStyle=none;html=1;fontSize=10;" edge="1" parent="1" source="94" target="96">
                    <mxGeometry relative="1" as="geometry"/>
                </mxCell>
                <mxCell id="94" value="元素插入到尾部，size++" style="rounded=0;whiteSpace=wrap;html=1;labelBackgroundColor=none;fontSize=10;" vertex="1" parent="1">
                    <mxGeometry x="45" y="763" width="110" height="40" as="geometry"/>
                </mxCell>
                <mxCell id="96" value="" style="ellipse;html=1;shape=endState;fillColor=#000000;strokeColor=#ff0000;labelBackgroundColor=none;fontSize=10;" vertex="1" parent="1">
                    <mxGeometry x="85" y="843" width="30" height="30" as="geometry"/>
                </mxCell>
                <mxCell id="125" style="edgeStyle=orthogonalEdgeStyle;rounded=0;html=1;exitX=0.5;exitY=1;exitDx=0;exitDy=0;entryX=0.5;entryY=0;entryDx=0;entryDy=0;fontSize=10;" edge="1" parent="1" source="101" target="120">
                    <mxGeometry relative="1" as="geometry"/>
                </mxCell>
                <mxCell id="101" value="调用calculateCapacity函数&lt;b&gt;进一步获取扩容值&lt;/b&gt;" style="rounded=1;whiteSpace=wrap;html=1;labelBackgroundColor=none;fontSize=10;" vertex="1" parent="1">
                    <mxGeometry x="195" y="653" width="130" height="50" as="geometry"/>
                </mxCell>
                <mxCell id="104" value="" style="rounded=0;whiteSpace=wrap;html=1;labelBackgroundColor=none;fontSize=10;fillColor=#ffe6cc;strokeColor=#d79b00;" vertex="1" parent="1">
                    <mxGeometry x="365" y="643" width="210" height="135" as="geometry"/>
                </mxCell>
                <mxCell id="103" style="edgeStyle=orthogonalEdgeStyle;html=1;exitX=1;exitY=0.5;exitDx=0;exitDy=0;fontSize=10;rounded=0;dashed=1;entryX=0.5;entryY=0;entryDx=0;entryDy=0;" edge="1" parent="1" source="101" target="126">
                    <mxGeometry relative="1" as="geometry">
                        <mxPoint x="325" y="673" as="sourcePoint"/>
                        <mxPoint x="440" y="653" as="targetPoint"/>
                    </mxGeometry>
                </mxCell>
                <mxCell id="115" style="edgeStyle=orthogonalEdgeStyle;rounded=0;html=1;exitX=0;exitY=0.5;exitDx=0;exitDy=0;entryX=0;entryY=0.5;entryDx=0;entryDy=0;fontSize=10;" edge="1" parent="1" source="105" target="111">
                    <mxGeometry relative="1" as="geometry">
                        <Array as="points">
                            <mxPoint x="380" y="756"/>
                        </Array>
                    </mxGeometry>
                </mxCell>
                <mxCell id="116" value="是" style="edgeLabel;html=1;align=center;verticalAlign=middle;resizable=0;points=[];fontSize=10;" vertex="1" connectable="0" parent="115">
                    <mxGeometry x="-0.1314" y="-2" relative="1" as="geometry">
                        <mxPoint x="3" y="-6" as="offset"/>
                    </mxGeometry>
                </mxCell>
                <mxCell id="118" style="edgeStyle=orthogonalEdgeStyle;rounded=0;html=1;exitX=1;exitY=0.5;exitDx=0;exitDy=0;entryX=0.5;entryY=0;entryDx=0;entryDy=0;fontSize=10;" edge="1" parent="1" source="105" target="117">
                    <mxGeometry relative="1" as="geometry"/>
                </mxCell>
                <mxCell id="119" value="否" style="edgeLabel;html=1;align=center;verticalAlign=middle;resizable=0;points=[];fontSize=10;" vertex="1" connectable="0" parent="118">
                    <mxGeometry x="-0.0121" relative="1" as="geometry">
                        <mxPoint x="-3" y="1" as="offset"/>
                    </mxGeometry>
                </mxCell>
                <mxCell id="105" value="数组值是DEE吗" style="rhombus;whiteSpace=wrap;html=1;labelBackgroundColor=none;fontSize=10;fillColor=#fff2cc;strokeColor=#d6b656;" vertex="1" parent="1">
                    <mxGeometry x="382" y="695.5" width="120" height="30" as="geometry"/>
                </mxCell>
                <mxCell id="106" value="&lt;font style=&quot;font-size: 10px&quot;&gt;DEE-&amp;gt;&lt;br&gt;DEFAULTCAPACITY_EMPTY_ELEMENTDATA&lt;/font&gt;" style="rounded=0;whiteSpace=wrap;html=1;fillColor=none;strokeColor=none;fontColor=#A87ED8;align=left;" vertex="1" parent="1">
                    <mxGeometry x="395" y="603" width="260" height="30" as="geometry"/>
                </mxCell>
                <mxCell id="109" style="rounded=0;html=1;exitX=0.5;exitY=1;exitDx=0;exitDy=0;entryX=0.5;entryY=0;entryDx=0;entryDy=0;fontSize=10;" edge="1" parent="1" source="126" target="105">
                    <mxGeometry relative="1" as="geometry">
                        <mxPoint x="440" y="683" as="sourcePoint"/>
                    </mxGeometry>
                </mxCell>
                <mxCell id="111" value="返回max(默认值, minCapacity)" style="rounded=0;whiteSpace=wrap;html=1;labelBackgroundColor=none;fontSize=10;" vertex="1" parent="1">
                    <mxGeometry x="397" y="741" width="90" height="30" as="geometry"/>
                </mxCell>
                <mxCell id="117" value="直接返回minCapacity" style="rounded=0;whiteSpace=wrap;html=1;labelBackgroundColor=none;fontSize=10;" vertex="1" parent="1">
                    <mxGeometry x="497" y="741" width="68" height="30" as="geometry"/>
                </mxCell>
                <mxCell id="123" style="edgeStyle=orthogonalEdgeStyle;rounded=0;html=1;exitX=0.5;exitY=1;exitDx=0;exitDy=0;entryX=0.877;entryY=0.066;entryDx=0;entryDy=0;entryPerimeter=0;fontSize=10;dashed=1;" edge="1" parent="1" source="120" target="122">
                    <mxGeometry relative="1" as="geometry"/>
                </mxCell>
                <mxCell id="120" value="调用ensureExplicitCapacity函数，进一步调用grow进行真正的扩容逻辑" style="rounded=1;whiteSpace=wrap;html=1;labelBackgroundColor=none;fontSize=10;" vertex="1" parent="1">
                    <mxGeometry x="195" y="721" width="130" height="50" as="geometry"/>
                </mxCell>
                <mxCell id="121" value="" style="rounded=0;whiteSpace=wrap;html=1;labelBackgroundColor=none;fontSize=10;fillColor=#ffe6cc;strokeColor=#d79b00;" vertex="1" parent="1">
                    <mxGeometry x="195" y="788" width="505" height="112" as="geometry"/>
                </mxCell>
                <mxCell id="122" value="grow函数" style="rounded=0;whiteSpace=wrap;html=1;labelBackgroundColor=none;fontSize=10;fillColor=#d5e8d4;strokeColor=#82b366;" vertex="1" parent="1">
                    <mxGeometry x="195" y="788" width="75" height="20" as="geometry"/>
                </mxCell>
                <mxCell id="126" value="&lt;span&gt;输入minCapacity&lt;/span&gt;" style="shape=hexagon;perimeter=hexagonPerimeter2;whiteSpace=wrap;html=1;fixedSize=1;labelBackgroundColor=none;fontSize=10;" vertex="1" parent="1">
                    <mxGeometry x="382" y="660" width="120" height="20" as="geometry"/>
                </mxCell>
                <mxCell id="130" style="edgeStyle=none;rounded=0;html=1;exitX=0.5;exitY=1;exitDx=0;exitDy=0;entryX=0.5;entryY=0;entryDx=0;entryDy=0;fontSize=10;" edge="1" parent="1" source="128" target="129">
                    <mxGeometry relative="1" as="geometry"/>
                </mxCell>
                <mxCell id="128" value="&lt;span&gt;输入minCapacity&lt;/span&gt;" style="shape=hexagon;perimeter=hexagonPerimeter2;whiteSpace=wrap;html=1;fixedSize=1;labelBackgroundColor=none;fontSize=10;" vertex="1" parent="1">
                    <mxGeometry x="215" y="808" width="120" height="20" as="geometry"/>
                </mxCell>
                <mxCell id="133" style="edgeStyle=orthogonalEdgeStyle;rounded=0;html=1;exitX=1;exitY=0.5;exitDx=0;exitDy=0;entryX=0;entryY=0.5;entryDx=0;entryDy=0;fontSize=10;" edge="1" parent="1" source="129" target="132">
                    <mxGeometry relative="1" as="geometry"/>
                </mxCell>
                <mxCell id="129" value="newCapacity=oldCapacity*1.5&lt;br&gt;即新容量默认为就容量的1.5倍" style="rounded=0;whiteSpace=wrap;html=1;labelBackgroundColor=none;fontSize=10;fillColor=#f8cecc;strokeColor=#b85450;" vertex="1" parent="1">
                    <mxGeometry x="200" y="853" width="150" height="30" as="geometry"/>
                </mxCell>
                <mxCell id="135" style="rounded=0;html=1;exitX=0.5;exitY=1;exitDx=0;exitDy=0;fontSize=10;" edge="1" parent="1" source="132" target="134">
                    <mxGeometry relative="1" as="geometry">
                        <mxPoint x="430" y="863" as="targetPoint"/>
                    </mxGeometry>
                </mxCell>
                <mxCell id="140" value="是" style="edgeLabel;html=1;align=center;verticalAlign=middle;resizable=0;points=[];fontSize=10;" vertex="1" connectable="0" parent="135">
                    <mxGeometry x="-0.5172" y="-1" relative="1" as="geometry">
                        <mxPoint x="1" as="offset"/>
                    </mxGeometry>
                </mxCell>
                <mxCell id="141" style="edgeStyle=none;rounded=0;html=1;exitX=1;exitY=0.5;exitDx=0;exitDy=0;entryX=0;entryY=0.5;entryDx=0;entryDy=0;fontSize=10;" edge="1" parent="1" source="132" target="136">
                    <mxGeometry relative="1" as="geometry"/>
                </mxCell>
                <mxCell id="142" value="否" style="edgeLabel;html=1;align=center;verticalAlign=middle;resizable=0;points=[];fontSize=10;" vertex="1" connectable="0" parent="141">
                    <mxGeometry x="0.4379" y="-1" relative="1" as="geometry">
                        <mxPoint x="-9" as="offset"/>
                    </mxGeometry>
                </mxCell>
                <mxCell id="132" value="newCapacity &amp;lt; minCapacity?" style="rhombus;whiteSpace=wrap;html=1;labelBackgroundColor=none;fontSize=10;fillColor=#fff2cc;strokeColor=#d6b656;" vertex="1" parent="1">
                    <mxGeometry x="375" y="793" width="100" height="40" as="geometry"/>
                </mxCell>
                <mxCell id="144" style="edgeStyle=orthogonalEdgeStyle;rounded=0;html=1;exitX=1;exitY=0.5;exitDx=0;exitDy=0;entryX=0;entryY=0.5;entryDx=0;entryDy=0;fontSize=10;" edge="1" parent="1" source="134" target="136">
                    <mxGeometry relative="1" as="geometry"/>
                </mxCell>
                <mxCell id="134" value="newCapacity=minCapacity，即此时新容量直接设置为需求容量" style="rounded=0;whiteSpace=wrap;html=1;labelBackgroundColor=none;fontSize=10;align=left;" vertex="1" parent="1">
                    <mxGeometry x="360" y="853" width="130" height="40" as="geometry"/>
                </mxCell>
                <mxCell id="146" style="rounded=0;html=1;exitX=0.5;exitY=1;exitDx=0;exitDy=0;entryX=0.5;entryY=0;entryDx=0;entryDy=0;fontSize=10;" edge="1" parent="1" source="136" target="143">
                    <mxGeometry relative="1" as="geometry"/>
                </mxCell>
                <mxCell id="148" style="edgeStyle=orthogonalEdgeStyle;rounded=0;html=1;exitX=1;exitY=0.5;exitDx=0;exitDy=0;entryX=0.5;entryY=0;entryDx=0;entryDy=0;fontSize=10;" edge="1" parent="1" source="136" target="147">
                    <mxGeometry relative="1" as="geometry"/>
                </mxCell>
                <mxCell id="150" value="否" style="edgeLabel;html=1;align=center;verticalAlign=middle;resizable=0;points=[];fontSize=10;" vertex="1" connectable="0" parent="148">
                    <mxGeometry x="0.0936" relative="1" as="geometry">
                        <mxPoint x="-12" as="offset"/>
                    </mxGeometry>
                </mxCell>
                <mxCell id="136" value="newCapacity&amp;gt;&lt;br&gt;MAX_ARRAY_SIZE?" style="rhombus;whiteSpace=wrap;html=1;labelBackgroundColor=none;fontSize=10;fillColor=#fff2cc;strokeColor=#d6b656;" vertex="1" parent="1">
                    <mxGeometry x="515" y="793" width="100" height="40" as="geometry"/>
                </mxCell>
                <mxCell id="149" style="edgeStyle=orthogonalEdgeStyle;rounded=0;html=1;exitX=1;exitY=0.5;exitDx=0;exitDy=0;entryX=0.5;entryY=1;entryDx=0;entryDy=0;fontSize=10;" edge="1" parent="1" source="143" target="147">
                    <mxGeometry relative="1" as="geometry"/>
                </mxCell>
                <mxCell id="143" value="如果newCapacity溢出为负数，则报错，否则返回Integer.MAX_VALUE" style="rounded=0;whiteSpace=wrap;html=1;labelBackgroundColor=none;fontSize=10;align=left;" vertex="1" parent="1">
                    <mxGeometry x="505.5" y="850" width="125" height="43" as="geometry"/>
                </mxCell>
                <mxCell id="147" value="函数返回" style="rounded=0;whiteSpace=wrap;html=1;labelBackgroundColor=none;fontSize=10;align=center;" vertex="1" parent="1">
                    <mxGeometry x="640" y="833" width="50" height="23" as="geometry"/>
                </mxCell>
                <mxCell id="152" style="rounded=0;html=1;exitX=0.5;exitY=0;exitDx=0;exitDy=0;entryX=0.5;entryY=1;entryDx=0;entryDy=0;fontSize=10;dashed=1;" edge="1" parent="1" source="151" target="129">
                    <mxGeometry relative="1" as="geometry"/>
                </mxCell>
                <mxCell id="151" value="&lt;span style=&quot;font-size: 10px&quot;&gt;1.5倍翻倍代码逻辑为：&lt;/span&gt;&lt;br&gt;&lt;span style=&quot;font-size: 10px&quot;&gt;oldCapacity + (oldCapacity &amp;gt;&amp;gt; 1)&lt;/span&gt;" style="rounded=0;whiteSpace=wrap;html=1;fillColor=none;strokeColor=none;fontColor=#A87ED8;align=left;" vertex="1" parent="1">
                    <mxGeometry x="170" y="910" width="150" height="30" as="geometry"/>
                </mxCell>
                <mxCell id="153" value="&lt;span style=&quot;font-size: 10px&quot;&gt;这里的逻辑是为了懒加载默认数组大小&lt;/span&gt;" style="rounded=0;whiteSpace=wrap;html=1;fillColor=none;strokeColor=none;fontColor=#A87ED8;align=left;" vertex="1" parent="1">
                    <mxGeometry x="580" y="673" width="100" height="30" as="geometry"/>
                </mxCell>
                <mxCell id="154" value="从add函数可以看到ArrayList可以自动扩容，但是却不会自动缩容，只有在手动调用&lt;b&gt;trimToSize&lt;/b&gt;方法时才会缩小容量" style="rounded=0;whiteSpace=wrap;html=1;labelBackgroundColor=none;fontSize=10;fillColor=#e1d5e7;strokeColor=#9673a6;" vertex="1" parent="1">
                    <mxGeometry x="50" y="950" width="190.5" height="50" as="geometry"/>
                </mxCell>
            </root>
        </mxGraphModel>
    </diagram>
</mxfile>